<?xml version="1.0" encoding="utf-8"?>
<!-- Generator: Adobe Illustrator 21.0.2, SVG Export Plug-In . SVG Version: 6.00 Build 0)  -->
<svg version="1.1" id="Calque_1" xmlns="http://www.w3.org/2000/svg" xmlns:xlink="http://www.w3.org/1999/xlink" x="0px" y="0px"
	 viewBox="0 0 566.9 566.9" style="enable-background:new 0 0 566.9 566.9;" xml:space="preserve">
<style type="text/css">
	.st0{fill:#FFFFFF;}
	.st1{fill:#F9B000;}
</style>
<circle class="st0" cx="285.3" cy="285.3" r="263.2"/>
<path class="st1" d="M283.4,554.5c-149,0.1-270.5-121.2-271-270.6C11.9,134.5,134.3,12.2,284.2,12.4
	c149.4,0.2,271.1,120.7,271.1,268.4C555.3,434.1,435.8,554.4,283.4,554.5z M268.3,327.5c27.8,17.5,38.5,20.6,59.1,17.8
	c36.4-4.9,61.2-25.4,77.3-57.5c29.1-58.4,17.9-118.9-28.6-152.9c-29.5-21.6-63.2-26.2-98.6-23.2c-54.5,4.6-100.3,40.8-114.1,90.3
	c-9.5,34,0,72.7,23.2,89.4c5.7,4.1,14.7,6.8,21.3,5.5c6.4-1.2,8.3-22.9,3.2-29.8c-14.5-19.2-14.2-39.9-7.4-61.4
	c22.7-70.9,110.3-71.8,145.1-43.4c42.2,34.5,18,128.2-17.5,144.6c-13.7,6.3-27.2,7.7-39.6-2c-12.3-9.6-10.7-22.5-7-35.7
	c4.9-17.3,10.3-34.5,13.9-52.1c2.7-13.2-1-25.8-14.3-31.6c-13-5.7-25.8-2.7-35.7,8c-12,13-17.7,29.4-13.3,45.8
	c5.6,20.7,1.4,39.4-3.8,58.7c-5.4,20.3-10.5,40.7-14.9,61.2c-5.5,24.9-6.7,49.8,1.1,77.2C249.8,405.6,258.9,367.2,268.3,327.5z"/>
<path class="st1" d="M-278.7,85.9c-1.4,153.2-122.5,271.9-275.9,270.6C-703.8,355.2-822.5,231.7-821,79.3
	c1.4-146.9,125-266.5,273.7-264.9C-397.1-183.9-277.3-62.9-278.7,85.9z M-626.7,86c6.3,0.5,10.8,1.6,15.1,1
	c15-2.2,18.5,4.4,18.2,18.6c-0.9,42.2-0.3,84.4-0.3,126.6c0,5.3,0.6,10.6,1,17.3c13.5,0,25.4,0.1,37.4,0
	c32.8-0.3,29.1,4.8,29.3-29.9c0.2-38.2,0-76.4,0.1-114.6c0-5.4,0.5-10.7,0.9-17.8c12.6,0,24.1,0.6,35.5-0.3c4-0.3,10.9-3.7,11.2-6.3
	c2.5-19.6,3.7-39.5,5.4-61.3c-12.1,0-21.5,0-30.9,0c-20.2,0-20.1-0.4-19.9-19.9c0.2-12.6,5.1-18.7,18.1-17.9
	c7,0.5,14.1-0.2,21.1,0.1c7.6,0.3,11-2.6,10.8-10.5c-0.4-12.6,0.7-25.2-0.6-37.6c-0.4-3.9-6.4-10-10.1-10.3
	c-16-1.1-32.2-1.5-48.2-0.2c-37.6,2.9-60,27-61.3,65.1c-0.3,9.9-0.1,19.8-0.1,31.3c-8.9,0-15.8-1.3-21.7,0.4
	c-4.3,1.3-10.3,6.4-10.5,10.1C-627.3,47.9-626.7,66-626.7,86z"/>
<g>
	<path class="st1" d="M-783.6,659.8c0.4-150.6,122.1-271.3,272.8-270.8c148.6,0.5,270,122.6,269.5,271.1
		c-0.5,150.3-122.2,271.4-272.2,271C-662.5,930.5-784,808.5-783.6,659.8z M-691.4,767.4c1,0.3,1.4,0.5,1.8,0.5
		c40.8,0,81.6,0.5,122.4-0.3c16.9-0.3,32.7-6.2,45.5-17.9c16.6-15.2,20.2-35,19-56.1c-0.6-11.4-3.3-22.4-9.9-32.1
		c-6.8-9.9-16.4-14.8-29.7-16c3.4-1.3,5.2-2,7.1-2.7c9.3-3.5,16.3-9.7,20.5-18.8c8.1-17.5,6.4-53.2-18.3-70
		c-11.4-7.8-24.2-11.4-37.8-11.5c-38.6-0.2-77.1-0.1-115.7-0.1c-1.5,0-3.1,0.3-4.7,0.4C-691.4,617.8-691.4,692.5-691.4,767.4z
		 M-326.9,697.4c-1-12.3-1-23.7-2.9-34.8c-4.4-25-15.9-45.7-40.6-55.8c-8.5-3.5-17.8-5.7-27-6.4c-33.7-2.7-63.2,5.8-81.7,36.7
		c-15.9,26.6-18.7,55.3-8.8,84.8c6.7,20,19.8,34.7,39.4,43.1c18,7.7,36.9,8.9,56.1,7.2c14-1.3,27.5-4.8,39.5-12.8
		c16.4-11,23.2-26.6,23.4-46.2c-13.4,0-26.1,0-39,0c-1.6,10.5-7.3,17.6-17.2,21c-11.8,4-23.9,4.6-35.8,0.6
		c-15.8-5.3-26.2-22.4-22.6-37.3C-405.9,697.4-367.4,697.4-326.9,697.4z M-362.7,556.1c-31,0-61.5,0-92.1,0c0,9,0,17.6,0,26.6
		c30.8,0,61.3,0,92.1,0C-362.7,573.7-362.7,565.1-362.7,556.1z"/>
	<path class="st1" d="M-639.9,667.7c22.9,0,45.2-0.3,67.4,0.1c9.1,0.2,15.4,5.8,18.9,14c4.2,9.9,4.5,20,1.1,30.2
		c-2.8,8.5-9,14.7-17.4,15c-23.2,0.9-46.5,0.3-70.1,0.3C-639.9,707.8-639.9,688.1-639.9,667.7z"/>
	<path class="st1" d="M-640.1,632.4c0-16.9,0-33.1,0-49.8c1.9-0.2,3.7-0.4,5.4-0.5c19.1,0,38.2-0.1,57.3,0c10,0,16.8,4.6,18,14.4
		c1,8.1,0.3,16.6-1.1,24.6c-1,6.1-5.8,10.9-12.3,11C-595,632.7-617.3,632.4-640.1,632.4z"/>
	<path class="st1" d="M-371.7,667.5c-24.4,0-48.9,0-73.3,0c0.3-19.9,19.4-35.7,42-34.8C-384.5,633.4-370.6,648.7-371.7,667.5z"/>
</g>
</svg>
