<?xml version="1.0" encoding="utf-8"?>
<!-- Generator: Adobe Illustrator 24.0.0, SVG Export Plug-In . SVG Version: 6.00 Build 0)  -->
<svg version="1.1" id="Calque_1" xmlns="http://www.w3.org/2000/svg" xmlns:xlink="http://www.w3.org/1999/xlink" x="0px" y="0px"
	 viewBox="0 0 566.9 566.9" style="enable-background:new 0 0 566.9 566.9;" xml:space="preserve">
<style type="text/css">
	.st0{fill:#F9B000;}
	.st1{fill:#FFFFFF;}
</style>
<path class="st0" d="M883.4,938.7c-149,0.1-270.5-121.2-271-270.6s121.9-271.7,271.7-271.5c149.4,0.2,271.1,120.7,271.1,268.4
	C1155.3,818.3,1035.8,938.6,883.4,938.7z M868.3,711.6c27.8,17.5,38.5,20.6,59.1,17.8c36.4-4.9,61.2-25.4,77.3-57.5
	c29.1-58.4,17.9-118.9-28.6-152.9c-29.5-21.6-63.2-26.2-98.6-23.2c-54.5,4.6-100.3,40.8-114.1,90.3c-9.5,34,0,72.7,23.2,89.4
	c5.7,4.1,14.7,6.8,21.3,5.5c6.4-1.2,8.3-22.9,3.2-29.8c-14.5-19.2-14.2-39.9-7.4-61.4c22.7-70.9,110.3-71.8,145.1-43.4
	c42.2,34.5,18,128.2-17.5,144.6c-13.7,6.3-27.2,7.7-39.6-2c-12.3-9.6-10.7-22.5-7-35.7c4.9-17.3,10.3-34.5,13.9-52.1
	c2.7-13.2-1-25.8-14.3-31.6c-13-5.7-25.8-2.7-35.7,8c-12,13-17.7,29.4-13.3,45.8c5.6,20.7,1.4,39.4-3.8,58.7
	c-5.4,20.3-10.5,40.7-14.9,61.2c-5.5,24.9-6.7,49.8,1.1,77.2C849.7,789.8,858.9,751.3,868.3,711.6z"/>
<path class="st0" d="M286,12.4c-148.7-1.6-272.4,118-273.7,264.9c-1.4,152.4,117.2,275.9,266.5,277.2
	c153.4,1.3,274.5-117.4,275.9-270.6C556,135.1,436.2,14.1,286,12.4z"/>
<g>
	<path class="st0" d="M-783.6,659.8c0.4-150.6,122.1-271.3,272.8-270.8c148.6,0.5,270,122.6,269.5,271.1
		c-0.5,150.3-122.2,271.4-272.2,271C-662.5,930.5-784,808.5-783.6,659.8z M-691.4,767.4c1,0.3,1.4,0.5,1.8,0.5
		c40.8,0,81.6,0.5,122.4-0.3c16.9-0.3,32.7-6.2,45.5-17.9c16.6-15.2,20.2-35,19-56.1c-0.6-11.4-3.3-22.4-9.9-32.1
		c-6.8-9.9-16.4-14.8-29.7-16c3.4-1.3,5.2-2,7.1-2.7c9.3-3.5,16.3-9.7,20.5-18.8c8.1-17.5,6.4-53.2-18.3-70
		c-11.4-7.8-24.2-11.4-37.8-11.5c-38.6-0.2-77.1-0.1-115.7-0.1c-1.5,0-3.1,0.3-4.7,0.4C-691.4,617.8-691.4,692.5-691.4,767.4z
		 M-326.9,697.4c-1-12.3-1-23.7-2.9-34.8c-4.4-25-15.9-45.7-40.6-55.8c-8.5-3.5-17.8-5.7-27-6.4c-33.7-2.7-63.2,5.8-81.7,36.7
		c-15.9,26.6-18.7,55.3-8.8,84.8c6.7,20,19.8,34.7,39.4,43.1c18,7.7,36.9,8.9,56.1,7.2c14-1.3,27.5-4.8,39.5-12.8
		c16.4-11,23.2-26.6,23.4-46.2c-13.4,0-26.1,0-39,0c-1.6,10.5-7.3,17.6-17.2,21c-11.8,4-23.9,4.6-35.8,0.6
		c-15.8-5.3-26.2-22.4-22.6-37.3C-405.9,697.4-367.4,697.4-326.9,697.4z M-362.7,556.1c-31,0-61.5,0-92.1,0c0,9,0,17.6,0,26.6
		c30.8,0,61.3,0,92.1,0C-362.7,573.7-362.7,565.1-362.7,556.1z"/>
	<path class="st0" d="M-639.9,667.7c22.9,0,45.2-0.3,67.4,0.1c9.1,0.2,15.4,5.8,18.9,14c4.2,9.9,4.5,20,1.1,30.2
		c-2.8,8.5-9,14.7-17.4,15c-23.2,0.9-46.5,0.3-70.1,0.3C-639.9,707.8-639.9,688.1-639.9,667.7z"/>
	<path class="st0" d="M-640.1,632.4c0-16.9,0-33.1,0-49.8c1.9-0.2,3.7-0.4,5.4-0.5c19.1,0,38.2-0.1,57.3,0c10,0,16.8,4.6,18,14.4
		c1,8.1,0.3,16.6-1.1,24.6c-1,6.1-5.8,10.9-12.3,11C-595,632.7-617.3,632.4-640.1,632.4z"/>
	<path class="st0" d="M-371.7,667.5c-24.4,0-48.9,0-73.3,0c0.3-19.9,19.4-35.7,42-34.8C-384.5,633.4-370.6,648.7-371.7,667.5z"/>
</g>
<path class="st1" d="M376.5,131.8h-186c-32.3,0-58.6,26.3-58.6,58.6v61.9v22.8v101.4c0,32.3,26.3,58.6,58.6,58.6h186
	c32.3,0,58.6-26.3,58.6-58.6V275.2v-22.8v-61.9C435.1,158.1,408.8,131.8,376.5,131.8z M393.3,166.8l6.7,0v6.7v44.7l-51.2,0.2
	l-0.2-51.4L393.3,166.8z M240.2,252.3c9.7-13.4,25.5-22.2,43.3-22.2c17.8,0,33.6,8.8,43.3,22.2c1.2,1.6,2.2,3.3,3.2,5.1
	c4.3,7.7,6.9,16.6,6.9,26c0,29.4-24,53.4-53.4,53.4c-29.4,0-53.4-23.9-53.4-53.4c0-9.5,2.5-18.3,6.9-26
	C238,255.7,239,254,240.2,252.3z M405.5,376.5c0,16-13,29.1-29.1,29.1h-186c-16,0-29.1-13-29.1-29.1V268.1v-15.7h45.3
	c-1.1,2.8-2.1,5.6-2.9,8.6c-2,7.2-3.2,14.7-3.2,22.6c0,45.7,37.2,82.9,82.9,82.9c45.7,0,82.9-37.2,82.9-82.9
	c0-7.8-1.1-15.4-3.2-22.6c-0.8-2.9-1.8-5.8-2.9-8.5h45.3v15.7V376.5z"/>
</svg>
